<?xml version="1.0" encoding="utf-8"?>
<!-- Svg Vector Icons : http://www.onlinewebfonts.com/icon -->
<!DOCTYPE svg PUBLIC "-//W3C//DTD SVG 1.1//EN" "http://www.w3.org/Graphics/SVG/1.1/DTD/svg11.dtd">
<svg version="1.1" xmlns="http://www.w3.org/2000/svg" xmlns:xlink="http://www.w3.org/1999/xlink" x="0px" y="0px" viewBox="0 0 1000 1000" enable-background="new 0 0 1000 1000" xml:space="preserve">
<metadata> Svg Vector Icons : http://www.onlinewebfonts.com/icon </metadata>
<g><g transform="translate(0.000000,512.000000) scale(0.100000,-0.100000)"><path d="M3842.8,4998.4c-233.5-26.8-518.7-103.4-689.1-187.6c-93.8-45.9-241.2-147.4-382.8-264.1c-126.3-103.4-357.9-294.8-516.8-424.9c-390.5-317.7-449.8-394.3-761.8-959c-90-162.7-202.9-365.6-250.7-449.8c-47.9-84.2-141.6-277.5-204.8-430.7c-65.1-153.1-178-411.5-250.8-574.2c-179.9-392.4-214.4-557-206.7-947.5c5.7-302.4,5.7-373.2-3.8-851.8c-5.7-310.1,9.6-449.8,93.8-890c99.5-526.4,426.8-1337.9,696.7-1732.2c231.6-340.7,876.6-1096.8,1066.1-1249.9c321.6-262.2,920.7-604.9,1242.2-713.9c480.4-162.7,878.6-132.1,1211.6,91.9l116.8,76.6l80.4-55.5c336.9-241.2,761.8-277.5,1248-111c333.1,114.8,916.9,449.8,1240.4,713.9c183.7,149.3,807.7,880.5,1054.6,1234.6c135.9,197.1,202.9,323.5,340.7,645c241.2,560.8,315.8,803.9,402,1299.6c63.1,369.4,63.1,365.6,49.8,1102.5c-1.9,84.2,0,277.5,3.8,430.7c7.7,396.2-32.5,585.7-204.8,955.1c-47.9,101.5-149.3,335-227.8,518.7c-78.5,183.8-172.3,386.6-208.6,449.8c-36.4,63.2-128.2,227.8-202.9,363.7c-373.2,675.7-428.8,750.3-782.9,1041.3c-153.1,126.3-394.3,325.4-535.9,442.2c-296.7,245-472.8,340.7-746.5,409.6c-319.6,80.4-803.9,112.9-1035.5,68.9c-132.1-24.9-312-112.9-405.8-199.1l-72.7-65.1l-70.8,63.2c-97.6,91.9-225.9,157-369.4,191.4C4422.8,5021.3,4095.5,5025.2,3842.8,4998.4z M6250.7,4684.5c290.9-44,421.1-120.6,470.9-281.4c36.4-111,15.3-1016.4-23-1112.1c-42.1-99.5-112.9-126.3-308.2-114.8c-105.3,7.7-206.7,0-317.7-23c-120.6-24.9-204.8-30.6-319.6-21.1c-147.4,13.4-157,11.5-185.7-30.6c-42.1-59.3-38.3-99.5,13.4-158.9c61.2-72.7,156.9-88.1,333.1-51.7c89.9,17.2,260.3,28.7,426.8,30.6c231.6,1.9,289,7.7,344.5,38.3c84.2,44,185.7,139.7,220.1,202.9c53.6,101.4,181.8,821.1,181.8,1014.5c0,42.1,9.6,76.6,21,76.6c63.2,0,402-313.9,463.2-430.7c30.6-57.4,40.2-109.1,40.2-210.5c-1.9-158.9-17.2-199.1-262.2-694.8c-134-271.8-193.4-411.5-222.1-537.9c-107.2-455.6,7.7-692.9,371.3-767.6c149.3-30.6,275.6-17.2,660.4,76.6c469,112.9,652.7,103.4,773.3-40.2c74.7-86.1,112.9-183.8,162.7-400c23-99.5,47.9-199.1,53.6-218.2c9.6-34.5,1.9-34.5-111-23c-67,7.7-225.9,47.9-354.1,90c-254.6,82.3-363.7,91.9-553.2,45.9c-176.1-42.1-245-36.4-392.4,38.3c-158.8,80.4-233.5,84.2-296.7,19.1c-112.9-111-19.1-214.4,252.7-285.2c145.5-38.3,279.5-38.3,400-1.9c139.7,42.1,199.1,36.4,446-45.9c122.5-40.2,279.5-80.4,346.4-88c68.9-5.7,157-21.1,197.2-30.6l70.8-19.1V599.8c0-70.8-5.7-208.6-11.5-304.3l-13.4-176.1h-72.7c-103.4,0-294.8,44-585.7,132.1c-505.3,157-662.3,170.4-1024,88.1c-176.1-40.2-260.3-47.9-511.1-47.9c-440.2,0-620.1-61.3-780.9-266.1c-233.5-294.7-333.1-336.9-541.7-231.6c-114.8,59.3-283.3,245-359.8,400l-68.9,141.6l-7.7,424.9l-7.7,424.9l264.2,11.5c281.4,13.4,457.5,45.9,581.9,109.1c91.9,45.9,103.4,65.1,76.6,114.8c-59.3,112.9-248.8,143.6-497.7,84.2c-189.5-45.9-350.3-45.9-402,1.9c-40.2,36.4-40.2,45.9-26.8,315.8c5.7,153.1,13.4,279.5,15.3,281.4c1.9,1.9,55.5-17.2,118.7-42.1c155-65.1,298.6-63.2,576.1,9.6c120.6,30.6,254.6,57.4,294.7,57.4c369.4,0,673.8-516.8,537.9-911.1c-68.9-201-172.3-279.5-459.4-352.2c-258.4-65.1-363.7-120.6-415.4-216.3l-38.3-72.7l45.9-38.3c36.4-30.6,63.2-36.4,120.6-26.8c130.1,23,528.3,158.9,620.1,212.5c239.3,139.7,423,390.5,467,637.4c78.5,440.2-287.1,930.2-758,1014.5c-135.9,24.9-262.2,5.7-440.2-65.1c-216.3-86.1-363.7-57.4-524.5,105.3c-70.8,68.9-114.9,132.1-130.2,183.8c-15.3,51.7-23,237.3-23,547.4v469l82.3,23c44,13.4,170.4,67,281.4,118.7c111,51.7,250.8,103.4,310.1,114.8c97.6,19.1,120.6,17.2,271.8-30.6c155-49.8,166.5-49.8,212.5-21.1c46,30.6,46,34.5,21.1,84.2c-36.3,68.9-124.4,149.3-189.5,174.2c-74.6,28.7-233.5,24.9-348.4-5.7c-51.7-15.3-197.1-67-323.5-116.8c-147.4-57.4-243.1-86.1-271.8-78.5c-101.4,26.8-111,336.9-15.3,547.4c76.6,172.3,166.5,239.3,371.3,273.7C5689.9,4718.9,6078.4,4711.2,6250.7,4684.5z M4482.1,4674.9c157-26.8,256.5-78.5,308.2-162.7c55.5-88,84.2-298.6,67-480.4l-13.4-145.5l-68.9,13.4c-36.4,7.7-153.1,45.9-256.5,88c-220.1,88.1-388.6,99.5-522.5,38.3c-105.3-47.9-157-107.2-126.3-143.6c19.1-23,51.7-26.8,141.6-19.1c126.3,11.5,222-15.3,558.9-160.8c74.6-32.5,162.7-68.9,197.1-82.3c34.5-11.5,68.9-36.4,78.5-53.6c7.7-17.2,9.6-250.7,3.8-518.7c-13.4-555.1-21.1-591.4-172.3-698.6c-111-78.5-289-88-518.7-26.8c-306.3,82.3-560.8,47.9-794.3-109.1c-300.5-199.1-419.2-501.5-346.5-886.2c55.5-298.6,176.1-484.3,380.9-589.5c78.5-40.2,557-222,706.3-268c21-5.7,40.2,9.6,61.2,49.8c80.4,155,9.6,239.3-266.1,315.8c-335,91.9-522.5,214.4-593.4,382.8c-122.5,294.8,44,731.2,331.1,857.5c103.4,45.9,256.5,40.2,537.9-23c237.3-51.7,421.1-49.8,562.7,7.7l109.1,45.9v-289c0-346.5-5.7-357.9-174.2-357.9c-61.2,0-189.5,17.2-285.2,40.2c-201,45.9-290.9,38.3-336.9-28.7c-36.4-57.4-19.1-137.8,38.3-172.3c21.1-15.3,195.2-45.9,384.7-68.9c189.5-23,352.2-47.8,361.8-57.4c24.9-24.9,44-560.8,26.8-754.1c-30.6-354.1-229.7-587.6-522.5-618.3c-160.8-17.2-256.5,28.7-449.8,214.4c-266.1,254.6-321.6,277.5-756.1,296.7c-168.4,7.6-434.5,34.4-589.5,57.4l-283.3,45.9l-252.7-51.7c-139.7-28.7-407.7-86.1-595.3-128.3c-189.5-40.2-388.6-80.4-446-88l-101.4-11.5v168.4c0,93.8-5.7,227.8-11.5,296.7l-13.4,126.3l132.1,11.5c82.3,7.7,229.7,44,390.5,99.5c304.3,107.2,403.9,120.6,580,78.5c72.7-17.2,170.4-30.6,218.2-30.6c101.4,0,304.3,47.8,365.6,88.1c57.4,36.4,55.5,112.9-3.8,151.2c-65.1,44-392.4,72.7-681.4,63.2c-208.6-7.7-283.3-21-589.5-101.4c-229.7-61.3-356-86.1-367.5-74.6c-13.4,13.4-9.6,70.8,9.6,170.4c38.3,201,76.6,310.1,143.6,417.3c128.2,201,323.5,224,803.9,90c449.8-124.4,620.2-124.4,809.7,0c168.4,112.9,266.1,327.3,266.1,583.8c0,197.2-55.5,348.4-237.4,635.5c-191.4,306.3-233.5,390.5-273.7,539.8c-38.3,153.1-40.2,287.1-3.8,357.9c63.2,122.5,505.3,497.7,543.6,461.3c3.8-5.7,34.4-185.7,65.1-400c59.3-421.1,107.2-639.3,168.4-758c65.1-126.3,254.6-197.2,595.3-224c181.8-15.3,430.7,13.4,516.8,57.4c32.5,17.2,72.7,51.7,90,80.4c32.5,47.9,30.6,49.8-23,95.7c-45.9,40.2-70.8,45.9-160.8,42.1c-59.3-3.8-179.9,1.9-269.9,9.6c-90,9.6-227.8,17.2-308.2,19.1c-126.3,1.9-153.1,7.7-214.4,53.6c-101.5,78.5-141.6,208.6-178,576.1c-40.2,390.5-40.2,488.1-1.9,562.7c68.9,132.1,256.5,233.5,520.6,283.3C3911.7,4695.9,4315.6,4701.7,4482.1,4674.9z M2164.1,3358c38.3-114.8,116.8-283.3,208.6-444.1c206.7-361.8,277.5-534,287.1-687.2c9.6-151.2-23-227.8-134-315.8c-68.9-55.5-88-59.3-250.7-65.1c-151.2-5.7-210.6,1.9-415.4,55.5c-130.2,34.5-310.1,76.6-398.1,95.7c-86.1,19.1-164.6,38.3-170.4,45.9c-42.1,42.1,183.7,587.6,248.8,599.1c17.2,3.8,90-44,162.7-105.3c193.3-164.6,306.3-235.4,377.1-235.4c70.8,0,93.8,13.4,124.4,72.7c21.1,38.3,17.2,59.3-26.8,147.4c-51.7,105.3-122.5,174.2-277.5,264.1c-47.9,28.7-111,70.8-141.6,95.7c-51.7,42.1-53.6,49.8-32.5,111c36.4,112.9,325.4,553.2,361.8,553.2C2095.2,3545.6,2129.7,3461.4,2164.1,3358z M7971.5,3493.9c74.6-78.5,340.7-522.5,340.7-566.6c0-3.8-45.9-38.3-103.4-76.6c-149.3-99.5-241.2-183.8-302.4-279.5c-95.7-151.2-61.3-225.9,91.9-202.9c74.7,9.6,103.4,28.7,183.8,114.8c162.7,176.1,248.8,179.9,367.5,15.3c78.5-107.2,210.5-400,197.2-436.4c-5.8-13.4-51.7-30.6-103.4-36.4c-49.8-7.7-216.3-45.9-369.4-84.2c-231.6-59.3-312-70.8-478.5-70.8c-246.9,0-327.3,32.5-398.1,164.6c-38.3,70.8-44,105.3-38.3,227.8c7.6,170.4,53.6,277.5,260.3,608.7c134,214.4,153.1,258.4,233.5,535.9c21.1,74.7,45.9,137.8,55.5,137.8C7916,3545.6,7944.7,3522.6,7971.5,3493.9z M2531.6,79.2c179.9-45.9,357.9-53.6,662.3-28.7c139.7,13.4,210.6,9.6,264.1-7.6c44-13.4,160.8-101.4,294.8-222.1c122.5-107.2,266.1-218.2,319.7-245c204.8-105.3,377.1-82.3,622.1,82.3l143.6,95.7l13.4-185.7c24.9-325.4,26.8-497.7,1.9-522.6c-15.3-15.3-53.6-7.6-153.1,32.5c-112.9,47.9-155,53.6-321.6,53.6s-216.3-9.6-382.8-65.1c-354.1-118.7-461.3-88.1-604.8,172.3c-97.6,176.1-166.5,248.8-239.3,248.8c-53.6,0-122.5-61.3-122.5-109.1c0-49.8,139.7-298.6,241.2-428.8c181.8-235.4,346.5-273.7,733.1-162.7c468.9,134,742.7,72.8,813.5-187.6c17.2-55.5,32.5-243.1,40.2-444.1l13.4-348.3l-44-30.6c-34.5-23-91.9-30.6-246.9-30.6c-338.8,0-520.6-61.3-675.7-227.8c-157-166.5-191.4-310.1-80.4-338.8c78.5-19.2,135.9,5.7,271.8,126.3c70.8,63.2,156.9,126.3,189.5,143.6c86.1,40.2,405.8,76.6,495.7,55.5c65.1-15.3,76.6-26.8,90-84.2c15.3-76.6-3.8-572.3-23-583.8c-55.5-34.4-876.6-283.3-962.8-290.9l-111-11.5l-139.7,145.5c-124.4,126.3-153.1,147.4-245,166.5c-55.5,11.5-139.7,19.1-187.6,15.3c-68.9-3.8-88-13.4-91.9-44c-3.8-30.6,26.8-63.2,130.2-132.1c95.7-67,158.9-128.2,214.4-210.5c153.1-227.8,222-279.5,382.8-279.5c128.2,1.9,262.2,55.5,511.1,210.5c369.4,227.8,486.2,214.4,526.4-59.3c19.1-124.4-21.1-488.1-63.2-583.8c-70.8-157-260.3-237.3-570.4-237.3c-463.2,0-1031.7,258.4-1625.1,738.8c-268,216.3-403.9,421.1-451.7,671.9c-36.4,199,32.5,405.8,160.8,484.3c55.5,34.5,97.6,38.3,348.4,38.3c384.7,0,415.4,15.3,689.1,352.2c91.9,114.8,143.6,135.9,476.6,204.8c336.9,67,394.3,103.4,338.8,208.6c-44,82.3-183.8,93.8-490,38.3c-375.2-67-470.9-122.5-587.6-331.1c-128.2-227.8-178-252.7-511.1-246.9c-147.4,1.9-287.1-5.7-325.4-17.2c-160.8-51.7-268-199.1-317.7-442.1c-15.3-76.6-34.4-143.6-40.2-149.3c-32.5-32.5-386.6,488.1-549.3,807.7c-170.4,338.8-212.5,478.5-212.5,714c0,313.9,36.4,338.8,363.7,248.8c273.7-74.7,396.2-61.3,467,55.5c21.1,32.5,59.3,135.9,86.1,229.7c82.3,285.2,128.3,315.8,262.2,181.8c149.3-149.3,271.8-486.2,225.9-624c-26.8-80.4-57.4-97.6-262.2-132.1c-220.1-38.3-273.7-67-402-212.5c-59.3-68.9-134-137.8-164.6-153.1l-55.5-28.7l55.5-36.4c109.1-70.8,266.1-36.4,486.2,109.1c38.3,24.9,139.7,74.6,225.9,111c84.2,36.4,181.8,84.2,214.4,107.2c128.2,91.9,178,294.7,126.3,535.9c-53.6,256.5-170.4,436.4-344.5,535.9c-155,90-350.3,72.7-482.4-42.1c-84.2-74.7-101.4-107.2-122.5-239.3c-19.1-118.7-61.3-178-124.4-178c-23,0-122.5,17.2-222,38.3l-179.9,36.4l-168.4-57.4c-93.8-32.5-172.3-55.5-176.1-51.7c-3.8,3.8-24.9,109.1-45.9,235.4c-47.9,281.4-70.8,545.5-47.9,545.5c9.6,0,296.7,72.7,639.3,162.7C2194.8,157.7,2225.4,159.6,2531.6,79.2z M7986.8,117.5c47.9-9.6,172.3-51.7,277.5-93.8c287.1-111,474.7-157,698.6-170.4l201-11.5l5.8-139.7c3.8-80.4-11.5-239.3-34.5-373.2c-57.4-333.1-45.9-315.8-145.5-225.9c-109.1,101.5-183.7,103.4-390.5,13.4c-222-97.6-269.9-103.4-342.6-36.4c-49.8,44-63.1,78.5-88,204.8c-34.4,185.7-74.6,256.5-179.9,315.8c-222,122.5-449.8,3.8-612.5-317.7c-70.8-141.6-135.9-402-135.9-547.4c0-260.3,99.6-367.5,396.2-423c135.9-24.9,179.9-42.1,298.6-126.3c111-76.6,156.9-97.6,216.3-99.5c76.6,0,206.7,51.7,195.3,76.6c-15.3,36.4-338.8,327.3-394.3,356c-34.5,19.1-132.1,44-214.4,59.3c-266.1,45.9-281.4,67-229.7,312c68.9,336.9,199.1,524.5,344.5,491.9c76.6-17.2,103.4-63.2,141.7-239.3c17.2-78.5,47.9-172.3,68.9-204.8c82.3-135.9,279.4-176.1,530.2-111c128.2,32.5,139.7,32.5,185.7,3.8c76.6-49.8,97.6-160.8,70.8-367.5c-53.6-409.6-304.3-916.9-627.8-1271l-112.9-122.5l-23,143.6c-68.9,442.1-298.6,601-735,501.5c-227.8-51.7-333.1-19.1-442.1,141.7c-91.9,134-224,269.9-310.1,319.6c-178,105.3-602.9,189.5-698.6,139.7c-57.4-30.6-95.7-101.4-82.3-151.2c17.2-67,90-95.7,357.9-141.6c388.6-67,457.5-109.1,597.2-375.2c122.5-231.6,245-277.5,627.8-229.7c350.3,44,459.4-51.7,457.5-400c-3.8-421.1-386.7-859.4-1041.3-1186.7c-507.2-254.6-1022.1-356-1328.4-258.4c-153.1,47.9-298.6,189.5-331.1,319.7c-32.5,126.3-28.7,478.5,3.8,560.8c68.9,164.6,214.4,143.6,564.7-84.2c258.4-168.4,371.3-208.6,493.8-176.1c114.9,30.6,216.3,114.8,336.9,275.6c132.1,176.1,158.8,195.2,325.4,245c70.8,23,128.2,51.7,128.2,63.2c0,44-65.1,84.2-183.8,116.7c-109.1,30.6-120.6,30.6-183.7,1.9c-36.4-17.2-111-88-164.6-155c-201-248.8-313.9-285.2-532.1-164.6c-394.3,220.1-365.6,208.6-583.8,222l-202.9,13.4l-9.6,204.8c-5.7,111-5.7,260.3,0,333l9.6,128.2H5376c352.2,0,384.7-11.5,581.9-216.3l168.5-174.2l49.8,32.5c132.1,88.1,72.7,357.9-105.3,484.3c-153.1,105.3-250.7,128.2-585.7,137.8c-250.8,5.7-315.8,13.4-335,38.3c-38.3,45.9-32.5,595.3,9.6,731.2c38.3,128.2,145.5,260.3,250.8,308.2c111,49.8,306.3,45.9,528.3-11.5c543.6-141.7,723.5-63.2,983.8,432.6c49.8,91.9,88,170.4,88,176.1s-32.5,21-70.8,30.6c-116.8,32.5-189.5-15.3-296.7-199.1c-49.8-84.2-120.6-181.8-158.9-214.4c-91.9-88-174.2-84.2-507.2,23c-323.5,103.4-400,107.2-612.5,28.7c-86.1-30.6-168.4-57.4-183.7-57.4c-23,0-26.8,61.3-26.8,373.2c0,204.8,7.7,373.3,15.3,373.3c9.6,0,68.9-42.1,134-93.8c151.2-122.5,264.1-164.6,434.5-164.6c114.8,0,151.2,9.6,254.6,65.1c65.1,36.4,197.1,137.8,292.8,223.9c216.3,201,268,218.2,624,218.2c189.5,0,315.8,11.5,497.7,45.9c135.9,26.8,266,51.7,292.8,55.5C7789.6,140.4,7900.6,138.5,7986.8,117.5z"/></g></g>
</svg>